<svg xmlns="http://www.w3.org/2000/svg" xmlns:svg="http://www.w3.org/2000/svg" id="Layer_1" x="0" y="0" enable-background="new 0 0 124.6 119.4" version="1.1" viewBox="0 0 124.6 119.4" xml:space="preserve"><metadata id="metadata21"/><style id="style3" type="text/css">.st0{fill:#3276bc}.st1{fill:#fff}</style><g id="g5" transform="matrix(1.307995,0,0,1.307995,-18.311088,-18.89905)"><path id="path7" fill="#3276bc" d="m 16,60.4 c 0,-25.1 20.3,-45.5 45.5,-45.5 24.8,0 45.1,20.3 45.1,45.5 0,24.8 -20.3,45.1 -45.1,45.1 C 36.3,105.5 16,85.2 16,60.4 Z" class="st0"/><path id="path9" fill="#fff" d="m 70.6,54.3 c -2.5,3.2 -4.5,4.5 -5.7,4.1 -0.6,-0.3 -0.9,-1 -0.9,-1.6 0,-0.3 0,-0.3 0,-0.3 0,-2.5 2.2,-6 5.1,-7.9 0.3,2.3 0.6,4.2 1.5,5.7 z m 5.1,-8.2 c -0.3,0 -0.3,0.3 -0.3,0.3 -0.3,0.6 -1.3,2.9 -2.9,5.1 -0.3,-1.6 -0.6,-2.9 -0.6,-4.5 1.3,-0.3 2.6,-0.6 3.8,-0.9 z m 10.5,0.6 c -1.6,-1.9 -3.2,-2.9 -7,-3.2 l 0,0 c 0,-0.3 0.3,-0.6 0,-1.3 -0.7,-0.9 -1.9,-1.6 -4.5,-1.6 -0.3,0 -0.6,0 -0.6,0 -0.7,0 -1,0 -1.3,0.6 0,0 0,0 0,0.3 0,0.3 0.6,0.6 0.6,0.6 1,0.7 1.9,1 2.2,1.3 -1.3,0.3 -2.5,0.6 -3.8,1.3 0,-1.9 0.3,-3.8 0.6,-6 1.6,0 2.9,-0.3 4.5,-0.9 2.5,-0.7 3.8,-1.9 3.8,-3.2 l 0,0 c 0,-0.6 -0.3,-1.3 -0.6,-1.3 -0.9,-0.6 -2.5,-0.3 -4.1,0.9 -0.6,0.7 -1.6,1 -2.5,1.6 0,-0.9 0.3,-1.9 0.7,-2.2 0,-0.9 0,-0.9 0,-0.9 l 0,0.3 c 0,-1 -1.3,-1.9 -5.1,-1.9 l -0.3,0 c -0.3,0 -0.9,-0.3 -0.9,0.3 l 0,0 c 0,0.6 0.6,0.6 1.3,1 0.3,0.3 0.6,0.6 0.6,0.6 0,1.3 -0.3,2.5 -0.3,3.5 -0.7,0 -1.3,0 -1.9,0 -1.3,0 -1.9,0 -2.2,0 -0.3,0 -0.6,-0.3 -0.9,-0.6 0,-0.3 -0.3,-0.3 -0.3,-0.3 C 63.3,35 62.4,35 62.4,35 l 0,0 c -0.6,0.3 -0.9,0.6 -0.9,0.6 0,0.6 0.3,0.9 0.6,1.3 0.3,0.3 0.3,0.3 0.3,0.3 0.6,1.3 1.9,1.9 1.9,1.9 l 0.3,0 c 1.6,0.3 2.9,0.3 4.5,0.3 -0.3,1.6 -0.3,3.5 -0.3,4.8 0,0.6 0,1.3 0,1.9 -7,3.5 -7.9,7.9 -7.9,10.2 0,2.2 1,3.8 1.9,4.1 0.3,0 0.9,0.6 2.2,0.6 1.6,0 4.5,-1 7.3,-3.8 0,0 0.3,0 0.3,0.3 0.9,0.7 1.6,1 2.5,1 0.6,0 0.9,-0.6 0.9,-0.6 0,-0.3 0.3,-0.3 0.3,-0.7 L 76,56.9 c -0.6,-0.6 -1.3,-1.3 -1.9,-2.2 1.9,-2.2 3.5,-5.1 5.1,-8.6 3.5,0 5.7,1.9 6,5.7 0,0.3 0.3,0.6 0.3,0.6 0,5.4 -8.6,8.6 -8.6,8.6 -1,0 -1.3,0.3 -1.3,0.9 0,0.6 0.7,1 1.3,1 l 0,0 0.3,0 c 0.3,0 10.8,-3.2 11.1,-11.1 l 0,-0.3 C 88.4,49.6 87.5,48 86.2,46.7 Z" class="st1"/><path id="path11" fill="#fff" d="m 50.6,81.1 c 0,-2.5 0,-4.8 0,-7 -3.2,-0.6 -6,-0.6 -7.6,0.3 -1.9,0.6 -3.8,1.9 -3.8,4.8 0,2.5 1.6,4.1 4.8,4.1 2.8,0 5,-0.7 6.6,-2.2 z m 4.5,5 C 51.3,85.8 51.3,85.8 51.3,85.8 51,85.1 51,84.5 51,83.3 c -0.3,0 -0.3,0 -0.3,0 -1.9,2.5 -4.8,3.2 -8.6,3.2 -1.9,0 -3.5,-0.3 -4.8,-1.6 -1.6,-1.3 -2.2,-3.2 -2.2,-5.4 0,-2.5 0.6,-4.8 2.9,-6.3 2.2,-2.2 7.3,-3.2 12.7,-1.9 0.3,0.3 0,-0.6 0,-1.3 0,-2.2 -0.6,-3.5 -1.6,-4.1 -1.3,-0.7 -2.9,-1 -5.1,-1 -2.5,0 -2.5,0.3 -5.1,1 -0.7,-3.5 -0.7,-3.5 -0.7,-3.5 2.5,-0.6 3.8,-1.3 7,-1.3 3.2,0 5.4,0.6 7,1.9 1.6,1.3 2.5,3.5 2.5,6.3 0,0.9 0,2.2 0,4.5 -0.3,1.9 -0.3,3.5 -0.3,4.1 0,3.2 0.4,5.7 0.7,8.2 z" class="st1"/><path id="path13" fill="#fff" d="m 60.5,42.6 c -4.1,-2.5 -12.4,-3.8 -18.4,0.3 -6,-6.1 -6,-6.1 -6,-6.1 0,19.7 0,19.7 0,19.7 19.1,0 19.1,0 19.1,0 -6.3,-7 -6.3,-7 -6.3,-7 2,-3.7 7.1,-6.6 11.6,-6.9 z" class="st1"/><path id="path15" fill="#fff" d="m 59.5,81.1 c 4.1,2.5 11.8,4.1 17.8,-0.3 5.7,6 5.7,6 5.7,6 C 83,68 83,68 83,68 c -18.4,0 -18.4,0 -18.4,0 6.7,6.3 6.7,6.3 6.7,6.3 -2.6,3.9 -7.3,6.4 -11.8,6.8 z" class="st1"/></g></svg>