<svg xmlns="http://www.w3.org/2000/svg" xmlns:svg="http://www.w3.org/2000/svg" xmlns:xlink="http://www.w3.org/1999/xlink" id="svg2" width="512" height="512" version="1.1" viewBox="0 0 512 512"><metadata id="metadata8"/><defs id="defs6"><linearGradient id="linearGradient9617"><stop id="stop9619" offset="0" stop-color="#000" stop-opacity=".329"/><stop id="stop9621" offset="1" stop-color="#000" stop-opacity="0"/></linearGradient><linearGradient id="linearGradient9623" x1="831.524" x2="1025.764" y1="389.275" y2="466.745" gradientUnits="userSpaceOnUse" xlink:href="#linearGradient9617"/></defs><g id="g9663" transform="matrix(1.1263557,0,0,1.1263557,-663.02839,-32.323276)"><path id="path9611" fill="#e5e5e5" fill-opacity="1" fill-rule="evenodd" stroke="none" stroke-dasharray="none" stroke-dashoffset="0" stroke-linecap="round" stroke-linejoin="round" stroke-miterlimit="4" stroke-opacity="1" stroke-width="6" d="m 1013.9675,113.91076 c 14.1849,0 25.6035,11.42053 25.6035,25.60547 l 0,313.89648 c 0,14.18493 -11.4186,25.60547 -25.6035,25.60547 l -176.24999,0 -26.13672,-365.10742 z" opacity="1"/><path id="path9615" fill="url(#linearGradient9623)" fill-opacity="1" fill-rule="evenodd" stroke="none" stroke-dasharray="none" stroke-dashoffset="0" stroke-linecap="round" stroke-linejoin="round" stroke-miterlimit="4" stroke-opacity="1" stroke-width="6" d="m 1039.571,318.46447 0,134.94824 c 0,14.18493 -11.4186,25.60547 -25.6035,25.60547 l -176.24999,0 -26.13672,-365.10742 z" opacity=".239"/><path id="path9613" fill="#4354b6" fill-opacity="1" fill-rule="evenodd" stroke="none" stroke-linecap="butt" stroke-linejoin="miter" stroke-opacity="1" stroke-width="1" d="M 808.13456,396.56182 836.51471,479.01766 917.82,397.71237 Z"/><path id="rect9649" fill="#668290" fill-opacity="1" fill-rule="evenodd" stroke="none" stroke-dasharray="none" stroke-dashoffset="0" stroke-linecap="round" stroke-linejoin="round" stroke-miterlimit="4" stroke-opacity="1" stroke-width="6" d="m 915.19823,206.95275 0,23.01172 -73.63476,0 0,20.70898 114.67578,0 c -7.2039,22.26738 -18.32076,39.1277 -30.84961,53.45704 -19.12702,-22.02021 -24.11328,-32.85938 -24.11328,-32.85938 l -20.58203,0.20312 c 0,0 1.60305,15.5663 30.43554,47.57227 -5.64395,5.4964 -11.37178,10.73887 -16.99218,15.93359 l 8.02344,21.85352 c 7.88766,-7.36956 15.70635,-14.91693 23.19921,-22.77539 20.66205,21.19628 51.89063,51.91797 51.89063,51.91797 l 14.2539,-13.05078 c 0,0 -32.78342,-32.90731 -52.59374,-53.95118 16.65041,-19.82371 30.45106,-41.95416 37.79296,-68.30078 l 29.38681,0 0,-20.70898 -72.0997,0 0,-23.01172 -18.79297,0 z" opacity="1"/><path id="rect9605" fill="#5390f5" fill-opacity="1" fill-rule="evenodd" stroke="none" stroke-dasharray="none" stroke-dashoffset="0" stroke-linecap="round" stroke-linejoin="round" stroke-miterlimit="4" stroke-opacity="1" stroke-width="6" d="m 618.58594,32.605469 c -14.18494,0 -25.60352,11.420535 -25.60352,25.605469 l 0,313.896482 c 0,14.18493 11.41858,25.60547 25.60352,25.60547 l 298.25,0 -123.86328,-365.107421 -174.38672,0 z" opacity="1"/><path id="path9641" fill="#fff" fill-opacity="1" d="m 711.15719,289.22211 c -15.27146,-3.5076 -26.63119,-9.9058 -38.20203,-21.5167 -9.5882,-9.6213 -14.08175,-16.5654 -18.13908,-28.0309 -11.62535,-32.8519 0.82449,-68.413 30.80258,-87.9829 12.96111,-8.4611 25.81959,-12.1278 42.31251,-12.0657 17.39846,0.066 34.61959,6.0616 46.02399,16.025 l 4.5,3.9314 -13.77891,13.8224 -4.07673,-3.3233 c -5.4922,-4.4772 -15.98888,-9.0001 -24.72242,-10.3588 -45.03789,-7.0062 -78.44511,40.7729 -57.4041,82.0994 6.2828,12.34 20.76028,23.7472 34.84752,27.5219 8.76488,2.3485 21.1251,2.1829 29.50322,-0.062 13.3726,-3.5832 24.9892,-12.7121 30.11004,-23.7321 3.28135,-7.0615 4.09497,-12.4758 4.09497,-16.5058 l -48.57359,0 0,-19.2214 68.53713,0 c 0.34665,1.1806 0.96288,5.641 0.96288,11.1452 0,32.4621 -17.19497,56.967 -46.50001,66.4033 -11.23602,3.61802 -26.02944,4.3522 -40.29797,1.8507 z" opacity="1"/></g></svg>